<svg width="17" height="17" viewBox="0 0 17 17" fill="none" xmlns="http://www.w3.org/2000/svg">
<g clip-path="url(#clip0_2085_17)">
<path d="M5.67818 1.92974C5.74634 1.81596 5.8569 1.73392 5.98556 1.70166C6.11421 1.66941 6.2504 1.68958 6.36418 1.75774C6.47796 1.8259 6.56 1.93646 6.59225 2.06511C6.62451 2.19376 6.60434 2.32996 6.53618 2.44374L3.99018 6.68674H13.2242L10.6772 2.44374C10.609 2.32996 10.5888 2.19376 10.6211 2.06511C10.6534 1.93646 10.7354 1.8259 10.8492 1.75774C10.963 1.68958 11.0992 1.66941 11.2278 1.70166C11.3565 1.73392 11.467 1.81596 11.5352 1.92974L14.3902 6.68674H16.1072C16.2398 6.68674 16.367 6.73942 16.4607 6.83318C16.5545 6.92695 16.6072 7.05413 16.6072 7.18674V9.18674C16.6072 9.31935 16.5545 9.44652 16.4607 9.54029C16.367 9.63406 16.2398 9.68674 16.1072 9.68674H15.6072V14.6867C15.6072 15.2172 15.3965 15.7259 15.0214 16.101C14.6463 16.476 14.1376 16.6867 13.6072 16.6867H3.60718C3.07674 16.6867 2.56804 16.476 2.19296 16.101C1.81789 15.7259 1.60718 15.2172 1.60718 14.6867V9.68674H1.10718C0.974569 9.68674 0.847393 9.63406 0.753624 9.54029C0.659856 9.44652 0.607178 9.31935 0.607178 9.18674V7.18674C0.607178 7.05413 0.659856 6.92695 0.753624 6.83318C0.847393 6.73942 0.974569 6.68674 1.10718 6.68674H2.82418L5.67818 1.92974ZM4.10718 11.1867C4.10718 11.0541 4.0545 10.927 3.96073 10.8332C3.86696 10.7394 3.73979 10.6867 3.60718 10.6867C3.47457 10.6867 3.34739 10.7394 3.25362 10.8332C3.15986 10.927 3.10718 11.0541 3.10718 11.1867V14.1867C3.10718 14.3193 3.15986 14.4465 3.25362 14.5403C3.34739 14.6341 3.47457 14.6867 3.60718 14.6867C3.73979 14.6867 3.86696 14.6341 3.96073 14.5403C4.0545 14.4465 4.10718 14.3193 4.10718 14.1867V11.1867ZM6.60718 11.1867C6.60718 11.0541 6.5545 10.927 6.46073 10.8332C6.36696 10.7394 6.23979 10.6867 6.10718 10.6867C5.97457 10.6867 5.84739 10.7394 5.75362 10.8332C5.65986 10.927 5.60718 11.0541 5.60718 11.1867V14.1867C5.60718 14.3193 5.65986 14.4465 5.75362 14.5403C5.84739 14.6341 5.97457 14.6867 6.10718 14.6867C6.23979 14.6867 6.36696 14.6341 6.46073 14.5403C6.5545 14.4465 6.60718 14.3193 6.60718 14.1867V11.1867ZM9.10718 11.1867C9.10718 11.0541 9.0545 10.927 8.96073 10.8332C8.86696 10.7394 8.73979 10.6867 8.60718 10.6867C8.47457 10.6867 8.34739 10.7394 8.25362 10.8332C8.15986 10.927 8.10718 11.0541 8.10718 11.1867V14.1867C8.10718 14.3193 8.15986 14.4465 8.25362 14.5403C8.34739 14.6341 8.47457 14.6867 8.60718 14.6867C8.73979 14.6867 8.86696 14.6341 8.96073 14.5403C9.0545 14.4465 9.10718 14.3193 9.10718 14.1867V11.1867ZM11.6072 11.1867C11.6072 11.0541 11.5545 10.927 11.4607 10.8332C11.367 10.7394 11.2398 10.6867 11.1072 10.6867C10.9746 10.6867 10.8474 10.7394 10.7536 10.8332C10.6599 10.927 10.6072 11.0541 10.6072 11.1867V14.1867C10.6072 14.3193 10.6599 14.4465 10.7536 14.5403C10.8474 14.6341 10.9746 14.6867 11.1072 14.6867C11.2398 14.6867 11.367 14.6341 11.4607 14.5403C11.5545 14.4465 11.6072 14.3193 11.6072 14.1867V11.1867ZM14.1072 11.1867C14.1072 11.0541 14.0545 10.927 13.9607 10.8332C13.867 10.7394 13.7398 10.6867 13.6072 10.6867C13.4746 10.6867 13.3474 10.7394 13.2536 10.8332C13.1599 10.927 13.1072 11.0541 13.1072 11.1867V14.1867C13.1072 14.3193 13.1599 14.4465 13.2536 14.5403C13.3474 14.6341 13.4746 14.6867 13.6072 14.6867C13.7398 14.6867 13.867 14.6341 13.9607 14.5403C14.0545 14.4465 14.1072 14.3193 14.1072 14.1867V11.1867Z" fill="black"/>
</g>
<defs>
<clipPath id="clip0_2085_17">
<rect width="16" height="16" fill="white" transform="translate(0.607178 0.686768)"/>
</clipPath>
</defs>
</svg>
