<svg width="16" height="15" viewBox="0 0 16 15" fill="none" xmlns="http://www.w3.org/2000/svg">
<path d="M7.21726 1.0276C7.60592 0.381783 8.54221 0.381783 8.93087 1.0276L10.6129 3.82259C10.7525 4.0546 10.9803 4.22007 11.2441 4.28117L14.4221 5.01719C15.1564 5.18726 15.4457 6.07773 14.9516 6.64694L12.8132 9.11036C12.6357 9.31484 12.5487 9.58258 12.5721 9.85235L12.8542 13.1022C12.9193 13.8532 12.1618 14.4035 11.4678 14.1095L8.46416 12.837C8.21482 12.7313 7.93331 12.7313 7.68398 12.837L4.68032 14.1095C3.98629 14.4035 3.22881 13.8532 3.29398 13.1022L3.57602 9.85235C3.59944 9.58258 3.51244 9.31484 3.33493 9.11036L1.19653 6.64694C0.702418 6.07773 0.991749 5.18726 1.72606 5.01719L4.90403 4.28117C5.16784 4.22007 5.39558 4.0546 5.53521 3.82259L7.21726 1.0276Z" fill="black"/>
</svg>
