<svg width="27" height="27" viewBox="0 0 27 27" fill="none" xmlns="http://www.w3.org/2000/svg">
<path d="M24.0331 2.63899H8.86645V8.21816C7.42847 8.51208 6.09696 9.19002 5.01336 10.18C3.92976 11.1699 3.13455 12.4349 2.7122 13.8405C2.28985 15.2461 2.25613 16.7399 2.61463 18.1632C2.97313 19.5864 3.71046 20.886 4.74829 21.9238C5.78611 22.9616 7.08568 23.699 8.50893 24.0575C9.93219 24.416 11.426 24.3823 12.8316 23.9599C14.2372 23.5376 15.5022 22.7423 16.4921 21.6587C17.4821 20.5751 18.16 19.2436 18.4539 17.8057H24.0331V2.63899ZM18.5991 15.639C18.4681 13.6755 17.6289 11.8262 16.2374 10.4347C14.8459 9.04321 12.9966 8.20402 11.0331 8.07299V4.80566H21.8664V15.639H18.5991ZM10.4914 10.2223C12.0717 10.2223 13.5872 10.8501 14.7046 11.9675C15.822 13.0849 16.4498 14.6004 16.4498 16.1807C16.4498 17.7609 15.822 19.2764 14.7046 20.3938C13.5872 21.5112 12.0717 22.139 10.4914 22.139C8.9112 22.139 7.39567 21.5112 6.27827 20.3938C5.16086 19.2764 4.53311 17.7609 4.53311 16.1807C4.53311 14.6004 5.16086 13.0849 6.27827 11.9675C7.39567 10.8501 8.9112 10.2223 10.4914 10.2223Z" fill="black"/>
</svg>
