<svg width="27" height="26" viewBox="0 0 27 26" fill="none" xmlns="http://www.w3.org/2000/svg">
<path d="M2.67627 12.1799C2.63625 12.0202 2.63318 11.8534 2.66728 11.6923C2.70139 11.5312 2.77177 11.38 2.87307 11.2502C2.97438 11.1204 3.10395 11.0153 3.25194 10.9431C3.39993 10.8709 3.56243 10.8333 3.7271 10.8333H22.6204C22.785 10.8334 22.9474 10.8709 23.0953 10.9431C23.2431 11.0153 23.3726 11.1202 23.4739 11.2499C23.5752 11.3795 23.6456 11.5306 23.6798 11.6916C23.714 11.8525 23.7111 12.0192 23.6713 12.1788L21.7094 20.0254C21.5922 20.4942 21.3217 20.9103 20.9409 21.2077C20.5601 21.505 20.0908 21.6666 19.6077 21.6667H6.73985C6.2567 21.6666 5.78743 21.505 5.40663 21.2077C5.02583 20.9103 4.75535 20.4942 4.63819 20.0254L2.67627 12.1799Z" stroke="white" stroke-width="2" stroke-linejoin="round"/>
<path d="M9.92383 15.1667V17.3333M16.4238 15.1667V17.3333M6.67383 10.8333L11.0072 4.33334M19.6738 10.8333L15.3405 4.33334" stroke="white" stroke-width="2" stroke-linecap="round"/>
</svg>
