<svg width="27" height="24" viewBox="0 0 27 24" fill="none" xmlns="http://www.w3.org/2000/svg">
<path fill-rule="evenodd" clip-rule="evenodd" d="M23.1456 11.5876C24.1473 10.5702 24.7037 9.19646 24.6926 7.76871C24.6814 6.34096 24.1035 4.97613 23.0861 3.97445C22.5823 3.47847 21.9857 3.08657 21.3305 2.82114C20.6752 2.55571 19.9741 2.42194 19.2672 2.42746C17.8394 2.43862 16.4746 3.01649 15.4729 4.03395C15.2009 4.30595 14.8552 4.63981 14.4359 5.03553L13.27 6.13345L12.1041 5.03553C11.6838 4.63887 11.3377 4.305 11.0657 4.03395C10.0561 3.02438 8.68682 2.45722 7.25908 2.45722C5.83133 2.45722 4.46206 3.02438 3.45249 4.03395C1.37283 6.11503 1.34874 9.47962 3.37599 11.5706L13.27 21.4646L23.1456 11.5876ZM2.24974 2.83262C2.90752 2.17467 3.68846 1.65275 4.54797 1.29666C5.40748 0.940573 6.32872 0.757295 7.25908 0.757295C8.18943 0.757295 9.11067 0.940573 9.97018 1.29666C10.8297 1.65275 11.6106 2.17467 12.2684 2.83262C12.5262 3.09139 12.8601 3.41345 13.27 3.79878C13.678 3.41345 14.0119 3.09092 14.2716 2.8312C15.5898 1.49268 17.3858 0.732655 19.2644 0.718308C21.143 0.703962 22.9503 1.43647 24.2888 2.7547C25.6273 4.07292 26.3874 5.86888 26.4017 7.74748C26.4161 9.62608 25.6836 11.4334 24.3653 12.7719L14.2716 22.8671C14.0059 23.1327 13.6456 23.2819 13.27 23.2819C12.8943 23.2819 12.5341 23.1327 12.2684 22.8671L2.17183 12.7705C0.877052 11.4352 0.159468 9.64414 0.174046 7.78419C0.188624 5.92425 0.934196 4.14467 2.24974 2.82978V2.83262Z" fill="white"/>
</svg>
