<svg width="23" height="24" viewBox="0 0 23 24" fill="none" xmlns="http://www.w3.org/2000/svg">
<path d="M21.2938 5.37255L11.9861 0.212268C11.7374 0.0730339 11.458 0 11.1738 0C10.8897 0 10.6102 0.0730339 10.3615 0.212268L1.05383 5.37469C0.788018 5.52206 0.56613 5.73903 0.411335 6.00295C0.25654 6.26688 0.174516 6.56807 0.173828 6.87509V17.1249C0.174516 17.4319 0.25654 17.7331 0.411335 17.997C0.56613 18.261 0.788018 18.4779 1.05383 18.6253L10.3615 23.7877C10.6102 23.927 10.8897 24 11.1738 24C11.458 24 11.7374 23.927 11.9861 23.7877L21.2938 18.6253C21.5596 18.4779 21.7815 18.261 21.9363 17.997C22.0911 17.7331 22.1731 17.4319 22.1738 17.1249V6.87616C22.1737 6.5686 22.092 6.26673 21.9371 6.00219C21.7823 5.73765 21.5601 5.52018 21.2938 5.37255ZM11.1738 1.71266L19.6713 6.42818L16.5226 8.17507L8.02402 3.45955L11.1738 1.71266ZM11.1738 11.1437L2.67633 6.42818L6.2619 4.43909L14.7594 9.15461L11.1738 11.1437ZM1.86614 7.92858L10.3277 12.6205V21.8147L1.86614 17.126V7.92858ZM20.4815 17.1217L12.02 21.8147V12.6248L15.4046 10.7482V14.5732C15.4046 14.8006 15.4937 15.0186 15.6524 15.1794C15.8111 15.3402 16.0263 15.4305 16.2508 15.4305C16.4752 15.4305 16.6904 15.3402 16.8491 15.1794C17.0078 15.0186 17.0969 14.8006 17.0969 14.5732V9.80943L20.4815 7.92858V17.1206V17.1217Z" fill="white"/>
</svg>
