<svg width="19" height="18" viewBox="0 0 19 18" fill="none" xmlns="http://www.w3.org/2000/svg">
<g clip-path="url(#clip0_45_440)">
<path d="M4.69468 17.2137C4.2392 17.2137 3.84942 17.0441 3.52534 16.7051C3.20126 16.3661 3.03894 15.958 3.03839 15.4809V1.61906C3.03839 1.14255 3.20071 0.734784 3.52534 0.395746C3.84997 0.0567075 4.23975 -0.1131 4.69468 -0.113678H14.6324C15.0879 -0.113678 15.478 0.05613 15.8026 0.395746C16.1272 0.735362 16.2893 1.14313 16.2887 1.61906V15.4809C16.2887 15.9574 16.1267 16.3655 15.8026 16.7051C15.4785 17.0447 15.0884 17.2142 14.6324 17.2137H4.69468ZM4.69468 15.4809H14.6324V1.61906H12.9761V7.68362L10.9058 6.38407L8.8354 7.68362V1.61906H4.69468V15.4809Z" fill="white"/>
</g>
<defs>
<clipPath id="clip0_45_440">
<rect width="18" height="18" fill="white" transform="translate(0.663574)"/>
</clipPath>
</defs>
</svg>
