<svg width="21" height="20" viewBox="0 0 21 20" fill="none" xmlns="http://www.w3.org/2000/svg">
<g clip-path="url(#clip0_45_444)">
<path d="M10.7646 1.489L11.4726 2.196L2.27957 11.389C1.33557 12.333 0.814575 13.589 0.814575 14.925C0.814575 16.261 1.33557 17.517 2.27957 18.46C3.22257 19.404 4.47857 19.925 5.81457 19.925C7.15057 19.925 8.40657 19.404 9.34957 18.46L18.5426 9.26699L19.2496 9.97499L20.6636 8.561L12.1786 0.0749969L10.7646 1.489ZM7.93557 17.046C6.80257 18.179 4.82657 18.179 3.69357 17.046C3.12757 16.48 2.81457 15.727 2.81457 14.925C2.81457 14.123 3.12757 13.37 3.69357 12.804L4.57257 11.925H13.0566L7.93557 17.046ZM15.0566 9.925H6.57257L12.8866 3.611L17.1286 7.853L15.0566 9.925Z" fill="white"/>
</g>
<defs>
<clipPath id="clip0_45_444">
<rect width="20" height="20" fill="white" transform="translate(0.663574)"/>
</clipPath>
</defs>
</svg>
