<svg width="21" height="20" viewBox="0 0 21 20" fill="none" xmlns="http://www.w3.org/2000/svg">
<g clip-path="url(#clip0_45_436)">
<path d="M11.662 4.21427C11.4185 4.21421 11.18 4.2833 10.9743 4.41348C10.7685 4.54366 10.604 4.72959 10.4998 4.94964C10.3877 5.17668 10.1909 5.35055 9.9518 5.4337C9.71267 5.51686 9.45044 5.50264 9.22171 5.3941C8.99299 5.28556 8.81613 5.09142 8.72932 4.85359C8.64252 4.61577 8.65273 4.35335 8.75776 4.12299C8.97284 3.66973 9.29104 3.27312 9.68689 2.9649C10.0827 2.65668 10.5452 2.4454 11.0374 2.34799C11.5295 2.25058 12.0377 2.26972 12.5211 2.40391C13.0045 2.53809 13.4498 2.78357 13.8213 3.12072C14.1928 3.45786 14.4803 3.8773 14.6606 4.34545C14.841 4.81361 14.9092 5.31749 14.8599 5.81675C14.8106 6.31602 14.6451 6.79681 14.3767 7.22064C14.1082 7.64447 13.7443 7.99957 13.314 8.25752C13.1082 8.37532 12.9217 8.52404 12.7612 8.69848C12.6403 8.8399 12.6262 8.92475 12.6262 8.96332C12.6262 9.05331 12.675 9.13816 12.7547 9.18187L19.3216 12.8304C19.8267 13.1104 20.2244 13.5503 20.4523 14.0809C20.6801 14.6115 20.7252 15.2028 20.5803 15.7618C20.4355 16.3208 20.109 16.8159 19.6522 17.1691C19.1953 17.5223 18.6341 17.7137 18.0566 17.7132H5.26218C4.68545 17.713 4.1251 17.5213 3.66901 17.1684C3.21293 16.8154 2.88689 16.321 2.74203 15.7627C2.59718 15.2045 2.6417 14.614 2.86861 14.0838C3.09552 13.5535 3.492 13.1136 3.99585 12.833L8.94417 10.0818C9.05505 10.0167 9.17782 9.97444 9.30526 9.9575C9.43271 9.94055 9.56226 9.94926 9.68629 9.98312C9.81032 10.017 9.92632 10.0753 10.0275 10.1547C10.1286 10.234 10.2129 10.3328 10.2753 10.4452C10.3377 10.5576 10.377 10.6813 10.3909 10.8092C10.4048 10.937 10.393 11.0663 10.3562 11.1895C10.3193 11.3126 10.2583 11.4272 10.1765 11.5264C10.0947 11.6257 9.99397 11.7075 9.8801 11.7672L4.93306 14.5185C4.80154 14.5908 4.69788 14.7049 4.63849 14.8428C4.57909 14.9806 4.56734 15.1343 4.6051 15.2796C4.64286 15.4249 4.72797 15.5534 4.84697 15.6449C4.96597 15.7364 5.11208 15.7856 5.26218 15.7848H18.0566C18.2066 15.785 18.3523 15.7354 18.471 15.6438C18.5897 15.5521 18.6746 15.4236 18.7123 15.2785C18.75 15.1333 18.7383 14.9798 18.6792 14.842C18.6201 14.7042 18.5169 14.5899 18.3857 14.5172L11.8162 10.8673C11.4775 10.6781 11.1952 10.4021 10.9984 10.0677C10.8016 9.73335 10.6974 9.3526 10.6965 8.96461C10.6965 8.33337 10.9729 7.82298 11.2878 7.45144C11.5964 7.08504 11.9821 6.80606 12.3202 6.60294C12.5614 6.45856 12.7486 6.23912 12.8532 5.97822C12.9577 5.71731 12.9739 5.42932 12.8993 5.15834C12.8246 4.88736 12.6632 4.64831 12.4397 4.47781C12.2162 4.3073 11.943 4.21473 11.662 4.21427Z" fill="white"/>
</g>
<defs>
<clipPath id="clip0_45_436">
<rect width="20" height="20" fill="white" transform="translate(0.663574)"/>
</clipPath>
</defs>
</svg>
