<svg width="20" height="22" viewBox="0 0 20 22" fill="none" xmlns="http://www.w3.org/2000/svg">
<path d="M16.284 13.7849C16.284 14.6383 16.1083 15.4832 15.7669 16.2716C15.4255 17.06 14.9251 17.7763 14.2943 18.3797C13.6635 18.9831 12.9146 19.4617 12.0904 19.7883C11.2662 20.1148 10.3828 20.2829 9.4907 20.2829C8.59859 20.2829 7.71521 20.1148 6.89101 19.7883C6.06681 19.4617 5.31792 18.9831 4.6871 18.3797C4.05628 17.7763 3.55589 17.06 3.2145 16.2716C2.8731 15.4832 2.69739 14.6383 2.69739 13.7849C2.69739 12.0616 3.41311 10.4088 4.6871 9.19019C5.9611 7.97159 7.689 7.28699 9.4907 7.28699C11.2924 7.28699 13.0203 7.97159 14.2943 9.19019C15.5683 10.4088 16.284 12.0616 16.284 13.7849Z" stroke="white" stroke-width="1.5" stroke-linecap="round" stroke-linejoin="round"/>
<path d="M10.4612 13.7849C10.4612 14.4004 10.2056 14.9907 9.75056 15.4259C9.29556 15.8611 8.67845 16.1056 8.03499 16.1056C7.39153 16.1056 6.77442 15.8611 6.31942 15.4259C5.86442 14.9907 5.60881 14.4004 5.60881 13.7849M9.93712 4.4873C9.95329 4.34063 9.95653 4.19334 9.94682 4.04543L9.82842 2.2093C9.80707 1.89369 10.1283 1.6514 10.4592 1.73309L14.936 2.84146C15.0119 2.85836 15.0823 2.89263 15.1412 2.94134C15.2001 2.99004 15.2457 3.05172 15.2742 3.12104C15.3026 3.19037 15.3131 3.26528 15.3045 3.33931C15.296 3.41335 15.2688 3.48428 15.2252 3.54602L14.1286 5.08047C14.0406 5.20424 13.9636 5.33327 13.8976 5.46756M9.93712 4.4873L8.52023 4.13641M9.93712 4.4873L13.8976 5.46756M13.8976 5.46756C13.8303 5.60556 13.7744 5.7479 13.7317 5.89457L13.0426 8.21526M13.8976 5.46756L15.3135 5.81845M9.93809 4.4873C9.92168 4.63784 9.89247 4.78686 9.85074 4.93287L9.02196 7.28698M2.69739 13.7849H16.284M11.4394 11.0001H11.4307" stroke="white" stroke-width="1.5" stroke-linecap="round" stroke-linejoin="round"/>
</svg>
