<svg width="22" height="22" viewBox="0 0 22 22" fill="none" xmlns="http://www.w3.org/2000/svg">
<g clip-path="url(#clip0_45_448)">
<path d="M1.13309 13.3758C0.907765 12.9856 0.837219 12.525 0.935428 12.0852C1.03364 11.6454 1.29344 11.2586 1.66337 11.0013L16.0797 0.9728C16.281 0.832806 16.5089 0.735492 16.7492 0.686845C16.9896 0.638198 17.2374 0.639248 17.4773 0.68993C17.7172 0.740612 17.9443 0.839854 18.1444 0.981549C18.3446 1.12325 18.5136 1.3044 18.6412 1.51386L21.1829 5.68776C21.3138 5.90281 21.3981 6.14298 21.4303 6.39269C21.4625 6.64241 21.4419 6.8961 21.3698 7.13733C21.2977 7.37856 21.1757 7.60196 21.0117 7.79304C20.8478 7.98412 20.6455 8.13863 20.418 8.24656L4.45405 15.8232C4.0459 16.017 3.57974 16.05 3.14837 15.9155C2.71701 15.7811 2.35208 15.4892 2.12623 15.0979L1.13309 13.3758ZM5.86333 9.72144L7.64918 12.8132L15.4793 9.0968L12.9115 4.81864L5.86333 9.72144ZM16.7025 8.51709L16.7034 8.51619L19.8401 7.02782C19.897 7.00078 19.9475 6.9621 19.9884 6.91429C20.0294 6.86647 20.0598 6.81059 20.0778 6.75026C20.0957 6.68993 20.1008 6.6265 20.0927 6.56407C20.0846 6.50165 20.0635 6.44163 20.0307 6.3879L17.4907 2.214C17.4586 2.16184 17.4162 2.11674 17.3662 2.08146C17.3161 2.04617 17.2594 2.02143 17.1994 2.00874C17.1395 1.99604 17.0776 1.99566 17.0175 2.00762C16.9574 2.01958 16.9004 2.04362 16.8499 2.07829L14.0206 4.0466L16.7025 8.51709ZM4.75334 10.4944L2.43271 12.1086C2.34042 12.173 2.27564 12.2696 2.25118 12.3795C2.22672 12.4893 2.24435 12.6043 2.3006 12.7018L3.29374 14.4229C3.35032 14.5207 3.44168 14.5937 3.54961 14.6271C3.65755 14.6606 3.77413 14.6522 3.87614 14.6036L6.42686 13.3929L4.75334 10.4944ZM16.1848 20.3323C16.3352 20.2358 16.4411 20.0834 16.4791 19.9088C16.5172 19.7342 16.4844 19.5516 16.3879 19.4012L12.7929 13.7938C12.7054 13.6575 12.5718 13.5572 12.4165 13.5114C12.2612 13.4655 12.0946 13.477 11.9471 13.5439L9.47549 14.6674C9.35872 14.7206 9.25957 14.806 9.18968 14.9136L6.26867 19.3976C6.17686 19.5473 6.14705 19.7268 6.18559 19.8981C6.22413 20.0694 6.32798 20.2189 6.47504 20.3148C6.62211 20.4107 6.80078 20.4454 6.97306 20.4116C7.14534 20.3778 7.29762 20.2781 7.39753 20.1337L10.2116 15.8142L10.67 15.6057V20.6748C10.67 20.8535 10.741 21.025 10.8674 21.1514C10.9938 21.2778 11.1653 21.3489 11.344 21.3489C11.5228 21.3489 11.6943 21.2778 11.8207 21.1514C11.9471 21.025 12.0181 20.8535 12.0181 20.6748V15.0844L15.2537 20.1292C15.3503 20.2796 15.5026 20.3855 15.6772 20.4235C15.8518 20.4616 16.0344 20.4288 16.1848 20.3323Z" fill="white"/>
</g>
<defs>
<clipPath id="clip0_45_448">
<rect width="21" height="22" fill="white" transform="translate(0.663574)"/>
</clipPath>
</defs>
</svg>
