<svg width="17" height="17" viewBox="0 0 17 17" fill="none" xmlns="http://www.w3.org/2000/svg">
<path d="M8.37842 0.751465C6.25506 0.751465 5.98858 0.760757 5.15461 0.798738C4.32228 0.836882 3.75414 0.968757 3.25701 1.16225C2.74279 1.3621 2.30658 1.62944 1.87201 2.06451C1.43711 2.49942 1.16998 2.93596 0.969631 3.45042C0.775799 3.94808 0.643863 4.51683 0.6064 5.34948C0.569099 6.18409 0.559326 6.45093 0.559326 8.57593C0.559326 10.7009 0.568774 10.9668 0.606563 11.8014C0.644841 12.6344 0.776614 13.203 0.969794 13.7005C1.16965 14.2151 1.43678 14.6516 1.87152 15.0865C2.30593 15.5218 2.74214 15.7898 3.25604 15.9896C3.75348 16.1831 4.32179 16.315 5.15396 16.3531C5.98793 16.3911 6.25425 16.4004 8.37744 16.4004C10.501 16.4004 10.7666 16.3911 11.6006 16.3531C12.4329 16.315 13.0017 16.1831 13.4992 15.9896C14.0132 15.7898 14.4488 15.5218 14.8832 15.0865C15.3181 14.6516 15.5852 14.2151 15.7856 13.7006C15.9778 13.203 16.1097 12.6342 16.1488 11.8016C16.1863 10.967 16.196 10.7009 16.196 8.57593C16.196 6.45093 16.1863 6.18425 16.1488 5.34964C16.1097 4.51666 15.9778 3.94808 15.7856 3.45058C15.5852 2.93596 15.3181 2.49942 14.8832 2.06451C14.4483 1.62927 14.0134 1.36194 13.4987 1.16225C13.0003 0.968757 12.4318 0.836882 11.5995 0.798738C10.7655 0.760757 10.5 0.751465 8.37597 0.751465H8.37842ZM7.67704 2.1615C7.8852 2.16117 8.11748 2.1615 8.37842 2.1615C10.4659 2.1615 10.7134 2.169 11.5377 2.20649C12.3 2.24137 12.7137 2.36885 12.9893 2.47594C13.3542 2.61776 13.6143 2.78729 13.8878 3.06115C14.1615 3.33501 14.3309 3.59582 14.4729 3.96096C14.5799 4.23645 14.7074 4.65049 14.7421 5.41338C14.7796 6.23821 14.7877 6.48598 14.7877 8.57414C14.7877 10.6623 14.7796 10.9101 14.7421 11.7349C14.7073 12.4978 14.5799 12.9118 14.4729 13.1873C14.3312 13.5525 14.1615 13.8125 13.8878 14.0861C13.6142 14.36 13.3544 14.5295 12.9893 14.6713C12.7141 14.7789 12.3 14.9061 11.5377 14.941C10.7135 14.9785 10.4659 14.9866 8.37842 14.9866C6.29073 14.9866 6.04331 14.9785 5.21912 14.941C4.45682 14.9058 4.04309 14.7783 3.76733 14.6712C3.40247 14.5294 3.14185 14.3598 2.86821 14.086C2.59456 13.8121 2.42516 13.552 2.28313 13.1867C2.17611 12.9112 2.04858 12.4971 2.01388 11.7342C1.97642 10.9094 1.96893 10.6616 1.96893 8.57218C1.96893 6.48272 1.97642 6.23625 2.01388 5.41142C2.04874 4.64854 2.17611 4.23449 2.28313 3.95868C2.42484 3.59354 2.59456 3.33272 2.86821 3.05887C3.14185 2.78501 3.40247 2.61548 3.76733 2.47334C4.04293 2.36575 4.45682 2.2386 5.21912 2.20356C5.94037 2.17095 6.21988 2.16117 7.67704 2.15954V2.1615ZM12.5518 3.46069C12.0339 3.46069 11.6136 3.88076 11.6136 4.3993C11.6136 4.91767 12.0339 5.33823 12.5518 5.33823C13.0698 5.33823 13.49 4.91767 13.49 4.3993C13.49 3.88092 13.0698 3.46069 12.5518 3.46069ZM8.37842 4.55774C6.16108 4.55774 4.36332 6.35688 4.36332 8.57593C4.36332 10.795 6.16108 12.5933 8.37842 12.5933C10.5958 12.5933 12.3929 10.795 12.3929 8.57593C12.3929 6.35688 10.5958 4.55774 8.37842 4.55774ZM8.37842 5.96777C9.81766 5.96777 10.9846 7.13541 10.9846 8.57593C10.9846 10.0163 9.81766 11.1841 8.37842 11.1841C6.93901 11.1841 5.77227 10.0163 5.77227 8.57593C5.77227 7.13541 6.93901 5.96777 8.37842 5.96777Z" fill="black"/>
</svg>
