<svg width="17" height="14" viewBox="0 0 17 14" fill="none" xmlns="http://www.w3.org/2000/svg">
<path fill-rule="evenodd" clip-rule="evenodd" d="M16.6631 1.89076C16.0592 2.15407 15.4197 2.32664 14.7653 2.40286C15.4524 2.00022 15.9689 1.36058 16.2178 0.604068C15.568 0.983283 14.8589 1.25006 14.1203 1.39315C13.8089 1.06745 13.4346 0.808423 13.02 0.631807C12.6055 0.45519 12.1594 0.364667 11.7088 0.365732C9.88421 0.365732 8.40508 1.82151 8.40508 3.61869C8.40508 3.87367 8.43353 4.12059 8.49043 4.35946C7.1815 4.29782 5.89983 3.96379 4.72732 3.37871C3.55481 2.79363 2.51725 1.97038 1.68095 0.961571C1.38848 1.45668 1.2339 2.02106 1.23327 2.5961C1.23414 3.13395 1.36902 3.66311 1.62572 4.13574C1.88243 4.60838 2.25286 5.0096 2.70354 5.30314C2.17956 5.28719 1.66673 5.14788 1.2067 4.89652V4.93678C1.2067 6.51254 2.34523 7.82741 3.85577 8.12613C3.36909 8.25573 2.85962 8.27498 2.36456 8.1825C2.78487 9.47402 4.00473 10.4145 5.45084 10.441C4.27577 11.3482 2.8321 11.8383 1.34761 11.834C1.08414 11.8346 0.820884 11.819 0.559326 11.7873C2.075 12.7444 3.83139 13.2512 5.62396 13.2487C11.7007 13.2487 15.0237 8.29281 15.0237 3.99552C15.0237 3.85434 15.0205 3.71397 15.0141 3.57441C15.6591 3.11554 16.2174 2.54494 16.6631 1.89076Z" fill="black"/>
</svg>
